<svg width="14" height="20" viewBox="0 0 14 20" fill="none" xmlns="http://www.w3.org/2000/svg">
<path d="M2.88461 19.5V10.4077C2.07307 10.232 1.38942 9.82145 0.833652 9.17594C0.277884 8.53043 0 7.76024 0 6.86537V0H1.49996V6.86537H2.88461V0H4.38457V6.86537H5.76921V0H7.26918V6.86537C7.26918 7.76024 6.99129 8.53043 6.43553 9.17594C5.87976 9.82145 5.19611 10.232 4.38457 10.4077V19.5H2.88461ZM12.5 19.5V11.5H9.76921V4.74998C9.76921 3.50127 10.1702 2.41827 10.9721 1.50096C11.774 0.583661 12.7833 0.0897502 13.9999 0.0192322V19.5H12.5Z" fill="black"/>
</svg>
